<svg width="59" height="44" viewBox="0 0 59 44" fill="none" xmlns="http://www.w3.org/2000/svg">
<path d="M30.9398 0.245987C29.885 0.593426 2.72999 14.0613 1.99638 14.6018C1.3015 15.1036 0.619738 16.0684 0.246675 17.0458C-0.100763 17.9594 -0.0751373 19.7603 0.285411 20.6477C0.439762 20.9951 2.54942 25.3169 4.98089 30.2311C8.90401 38.1292 9.48328 39.2484 10.0363 39.7889C11.1555 40.9081 12.9177 41.5512 14.41 41.3581C14.7962 41.3193 15.1174 41.2293 15.1174 41.1781C15.1174 41.1268 14.9755 40.805 14.8218 40.4451C14.14 39.0172 14.1531 39.3003 14.1531 27.9802C14.1531 17.4451 14.1531 17.4319 14.4362 16.5315C14.8349 15.271 15.5554 14.1006 16.5327 13.1226C17.5101 12.1578 18.4368 11.5791 19.7741 11.0905L20.7133 10.743L30.9142 10.7043C36.5101 10.6918 41.1025 10.653 41.1025 10.6274C41.1025 10.4087 37.0375 2.38186 36.742 1.99569C35.3778 0.310349 32.9595 -0.423264 30.9398 0.245987Z" fill="#DA3731"/>
<path d="M21.4851 14.2031C19.9928 14.563 18.5137 15.7853 17.8444 17.2001L17.497 17.9462V29.0088V40.0714L17.8444 40.8175C18.2687 41.7311 19.2848 42.8116 20.1472 43.2871C21.4976 44.0201 20.7902 43.9945 37.8862 43.9945C55.0978 43.9945 54.3904 44.0201 55.7926 43.2615C56.6544 42.7985 57.5036 41.8467 57.9923 40.8044L58.4041 39.9427V29.0088V18.0749L57.9923 17.2132C57.5036 16.1715 56.6544 15.2192 55.7926 14.7561C54.3904 13.9969 55.0978 14.0231 37.8862 14.0356C25.9875 14.0356 21.9738 14.0869 21.4851 14.2031ZM54.6085 17.6119C55.2134 17.9206 55.6377 18.6798 55.6377 19.4516V20.0684H38.1305H20.6102L20.6871 19.3354C20.7771 18.5249 21.0214 18.1006 21.6776 17.65L22.1019 17.367H38.1299C53.4893 17.367 54.1842 17.3801 54.6085 17.6119ZM55.6377 32.122V39.1715L55.3421 39.6733C55.1877 39.9433 54.8534 40.2782 54.6091 40.4063C54.1848 40.6375 53.4899 40.6507 38.1311 40.6507H22.1025L21.6782 40.3551C21.4463 40.2007 21.1251 39.9045 20.9833 39.712C20.7133 39.3521 20.7133 39.2234 20.6746 32.3795C20.6615 28.5589 20.6746 25.3431 20.7002 25.2531C20.7515 25.1119 23.9547 25.0857 38.2074 25.0857H55.6377V32.122Z" fill="#DA3731"/>
<path d="M25.2795 31.7616C24.3021 32.0834 23.3754 32.9064 23.0155 33.7681C22.8999 34.0512 22.7968 34.6299 22.7968 35.0542C22.7837 37.0226 24.2759 38.5149 26.2443 38.5017C27.1448 38.4892 27.7491 38.2705 28.3927 37.7169L28.8427 37.3182L29.1257 37.6138C29.8719 38.3986 31.6984 38.7461 32.7533 38.2955C33.3963 38.0381 34.2455 37.2407 34.5799 36.6102C34.966 35.8641 34.966 34.3718 34.5799 33.6257C33.8594 32.2622 32.9464 31.7091 31.4541 31.7091C30.4124 31.7091 29.8975 31.9022 29.2413 32.5196L28.8814 32.8539L28.5983 32.584C27.8266 31.8647 26.18 31.466 25.2795 31.7616Z" fill="#DA3731"/>
</svg>
