<svg width="59" height="54" viewBox="0 0 59 54" fill="none" xmlns="http://www.w3.org/2000/svg">
<path d="M49.8586 32.7025C50.0909 32.7026 50.3181 32.7707 50.5119 32.8983C50.7057 33.0258 50.8577 33.2072 50.9489 33.42L58.86 47.2636C59.0762 47.6797 58.9801 48.5169 58.9705 49H0V47.8041C0.00267731 47.5893 0.064122 47.3792 0.177723 47.1966L8.19929 33.3244C8.29914 33.1352 8.44903 32.9768 8.63275 32.8664C8.81647 32.7559 9.02701 32.6976 9.24161 32.6977H23.9926L20.7312 27.0962C20.5412 26.864 20.3694 26.6178 20.2172 26.3595L19.7081 25.4746C19.6637 25.5192 19.6136 25.5578 19.5592 25.5894L18.7138 26.0677L18.5649 26.1347C18.0935 26.3517 17.5636 26.4083 17.0567 26.296C16.5499 26.1836 16.0942 25.9084 15.7597 25.5128C15.6991 25.5958 15.6223 25.6657 15.534 25.7185L14.6886 26.1969C14.6412 26.2225 14.5913 26.2433 14.5397 26.2591C14.0324 26.4903 13.4602 26.5385 12.9211 26.3954C12.3821 26.2522 11.9099 25.9267 11.5856 25.4746C11.5628 25.5099 11.5353 25.5421 11.504 25.5702L10.6586 26.0486L10.5097 26.1156C7.98314 27.0723 6.66702 24.7762 5.6295 22.9106L5.34611 22.4322L4.06842 20.3084L4.02999 20.2414C3.05972 18.3949 3.09815 16.7829 3.14138 14.946C3.14138 14.6351 3.14138 14.3241 3.14138 13.8888C3.14138 13.8888 3.14138 13.8888 3.14138 13.8601C3.11956 12.9678 3.29845 12.082 3.66494 11.2675C4.00401 10.5412 4.56126 9.93778 5.25965 9.54061L12.5511 5.33588C12.8855 5.12745 13.2698 5.01179 13.6642 5.00085C14.0586 4.98992 14.4487 5.08412 14.7943 5.2737C15.5427 5.68867 16.1866 6.26773 16.6772 6.96707L24.9917 10.8274H25.0254C25.131 10.8752 25.2463 10.9231 25.3712 10.9852L29.137 8.82786L42.9802 32.7025H49.8586ZM24.473 28.3638L28.796 35.8931C29.0721 35.7337 29.3772 35.6301 29.6936 35.5882C30.01 35.5464 30.3316 35.5672 30.64 35.6494C30.9483 35.7317 31.2373 35.8737 31.4905 36.0673C31.7436 36.261 31.9559 36.5025 32.1151 36.7781L37.7494 33.5396C37.4286 32.9836 37.342 32.3237 37.5085 31.7042C37.6751 31.0848 38.0812 30.5562 38.638 30.2342L29.6125 14.6351C29.0535 14.9548 28.3901 15.0411 27.7673 14.8753C27.1445 14.7095 26.6129 14.305 26.2886 13.7501L21.9656 16.2423L22.1386 16.5341L25.645 22.6044C26.0204 22.1603 26.4706 21.7848 26.9755 21.4947C27.8045 21.0172 28.757 20.7952 29.7127 20.8568C30.6684 20.9185 31.5842 21.261 32.3444 21.841C33.1046 22.4211 33.675 23.2126 33.9835 24.1155C34.2919 25.0184 34.3246 25.9921 34.0773 26.9135C33.8301 27.8349 33.314 28.6625 32.5944 29.2918C31.8747 29.9211 30.9839 30.3237 30.0345 30.4487C29.0851 30.5738 28.1198 30.4156 27.2607 29.9943C26.4015 29.5729 25.6871 28.9073 25.2079 28.0816L25.1743 28.0242L25.0398 28.1007C24.8531 28.2097 24.655 28.2979 24.449 28.3638H24.473ZM20.5246 13.7788L23.5123 12.052L15.7934 8.82786C15.6875 8.77879 15.5964 8.70292 15.5292 8.60782C15.1455 8.03062 14.6428 7.54142 14.0545 7.17276C13.9166 7.09057 13.7589 7.04717 13.5982 7.04717C13.4375 7.04717 13.2798 7.09057 13.1419 7.17276L6.13866 11.2196C5.69291 11.4796 5.33889 11.8706 5.12515 12.339C4.87058 12.8652 4.94743 13.4153 4.94743 14.2141C4.94953 14.2284 4.94953 14.2429 4.94743 14.2572C4.94743 14.5585 4.94743 14.9508 4.94743 15.3287C4.909 16.9694 4.69766 17.9118 5.49981 19.4617L6.74868 21.5138C6.77324 21.5386 6.7928 21.5678 6.80632 21.5999C6.80632 21.6286 6.93601 21.8247 7.08491 22.0783C7.86786 23.4607 8.82852 25.1732 10.2167 24.6566L10.8363 24.2978C10.6202 23.9056 10.4136 23.499 10.2167 23.1067C10.0197 22.7145 9.87565 22.4131 9.69312 22.1022C9.64676 22.0227 9.61657 21.9349 9.60427 21.8438C9.59197 21.7528 9.59781 21.6602 9.62145 21.5713C9.64509 21.4825 9.68607 21.3991 9.74205 21.3261C9.79802 21.253 9.8679 21.1916 9.9477 21.1455C10.0275 21.0993 10.1156 21.0692 10.2071 21.057C10.2986 21.0447 10.3916 21.0506 10.4808 21.0741C10.57 21.0976 10.6536 21.1384 10.727 21.1942C10.8004 21.2499 10.862 21.3195 10.9084 21.399C11.0909 21.7147 11.283 22.0926 11.48 22.4849C12.1524 23.829 12.921 25.355 14.0594 24.9532L14.8663 24.4748C14.913 24.4512 14.9612 24.4304 15.0104 24.4126C14.7318 23.9343 14.4772 23.4559 14.2371 22.9776C14.0594 22.6236 13.896 22.2887 13.7135 21.973C13.6553 21.8944 13.6144 21.8046 13.5932 21.7092C13.5721 21.6139 13.5713 21.5152 13.5908 21.4195C13.6104 21.3239 13.6498 21.2333 13.7066 21.1538C13.7635 21.0742 13.8364 21.0074 13.9208 20.9577C14.0052 20.908 14.099 20.8764 14.1964 20.865C14.2938 20.8537 14.3925 20.8628 14.4861 20.8917C14.5797 20.9207 14.6662 20.9689 14.74 21.0332C14.8137 21.0975 14.8731 21.1765 14.9143 21.2651C15.0969 21.576 15.2842 21.9587 15.4859 22.3509C16.1536 23.6903 16.9269 25.221 18.0605 24.8192L18.8723 24.3409C18.9258 24.3081 18.9842 24.2839 19.0452 24.2691L17.6763 21.9348C17.5826 21.7743 17.5568 21.5833 17.6046 21.4039C17.6523 21.2245 17.7697 21.0713 17.9308 20.978C18.092 20.8848 18.2837 20.8591 18.4639 20.9067C18.6441 20.9542 18.7979 21.0711 18.8915 21.2316L21.4613 25.6611C22.0761 26.7231 22.9023 27.1488 23.6228 27.0962C23.8784 27.0833 24.1271 27.0094 24.3481 26.8809C24.4604 26.8184 24.5638 26.7412 24.6555 26.6513C24.6555 26.5939 24.7083 26.5652 24.7708 26.5317C24.8192 26.4801 24.8627 26.4241 24.9005 26.3643C25.0953 26.0206 25.1977 25.6325 25.1977 25.2378C25.1977 24.843 25.0953 24.455 24.9005 24.1113V24.073C24.8524 23.9725 24.7948 23.8673 24.7372 23.7621L19.3574 14.5681C19.2692 14.4141 19.2427 14.2325 19.2832 14.0599C19.3237 13.8872 19.4282 13.7361 19.5758 13.6369C19.7234 13.5377 19.9032 13.4977 20.0791 13.5249C20.2551 13.5521 20.4142 13.6445 20.5246 13.7836V13.7788ZM25.328 35.0608H9.92848L3.11736 46.6178H55.8771L49.1525 35.0416H40.886L33.0181 39.586H40.2807C40.4426 39.5757 40.6048 39.5986 40.7574 39.6532C40.91 39.7078 41.0497 39.793 41.168 39.9035C41.2863 40.014 41.3805 40.1475 41.4449 40.2957C41.5094 40.4439 41.5426 40.6037 41.5426 40.7651C41.5426 40.9266 41.5094 41.0864 41.4449 41.2346C41.3805 41.3828 41.2863 41.5163 41.168 41.6268C41.0497 41.7373 40.91 41.8225 40.7574 41.8771C40.6048 41.9317 40.4426 41.9546 40.2807 41.9443H20.4238C20.2626 41.9545 20.101 41.9318 19.949 41.8774C19.797 41.823 19.6578 41.7382 19.54 41.6281C19.4222 41.5181 19.3283 41.3851 19.2641 41.2375C19.2 41.0899 19.1668 40.9308 19.1668 40.7699C19.1668 40.6091 19.2 40.4499 19.2641 40.3023C19.3283 40.1547 19.4222 40.0218 19.54 39.9117C19.6578 39.8017 19.797 39.7168 19.949 39.6625C20.101 39.6081 20.2626 39.5853 20.4238 39.5956H27.9746L25.3472 35.0703L25.328 35.0608Z" fill="#DA3731"/>
</svg>
