<svg width="40" height="40" viewBox="0 0 40 40" fill="none" xmlns="http://www.w3.org/2000/svg">
<path d="M29.6833 7.44998C29.55 7.44998 29.4167 7.41665 29.3 7.34998C26.1 5.69998 23.3333 4.99998 20.0167 4.99998C16.7167 4.99998 13.5833 5.78331 10.7333 7.34998C10.3333 7.56665 9.83333 7.41665 9.6 7.01665C9.38333 6.61665 9.53333 6.09998 9.93333 5.88331C13.0333 4.19998 16.4333 3.33331 20.0167 3.33331C23.5667 3.33331 26.6667 4.11665 30.0667 5.86665C30.4833 6.08331 30.6333 6.58331 30.4167 6.98331C30.2667 7.28331 29.9833 7.44998 29.6833 7.44998ZM5.83333 16.2C5.66667 16.2 5.5 16.15 5.35 16.05C4.96667 15.7833 4.88333 15.2666 5.15 14.8833C6.8 12.55 8.9 10.7166 11.4 9.43331C16.6333 6.73331 23.3333 6.71665 28.5833 9.41665C31.0833 10.7 33.1833 12.5166 34.8333 14.8333C35.1 15.2 35.0167 15.7333 34.6333 16C34.25 16.2666 33.7333 16.1833 33.4667 15.8C31.9667 13.7 30.0667 12.05 27.8167 10.9C23.0333 8.44998 16.9167 8.44998 12.15 10.9166C9.88333 12.0833 7.98333 13.75 6.48333 15.85C6.35 16.0833 6.1 16.2 5.83333 16.2ZM16.25 36.3167C16.0333 36.3167 15.8167 36.2333 15.6667 36.0666C14.2167 34.6166 13.4333 33.6833 12.3167 31.6666C11.1667 29.6166 10.5667 27.1166 10.5667 24.4333C10.5667 19.4833 14.8 15.45 20 15.45C25.2 15.45 29.4333 19.4833 29.4333 24.4333C29.4333 24.9 29.0667 25.2666 28.6 25.2666C28.1333 25.2666 27.7667 24.9 27.7667 24.4333C27.7667 20.4 24.2833 17.1166 20 17.1166C15.7167 17.1166 12.2333 20.4 12.2333 24.4333C12.2333 26.8333 12.7667 29.05 13.7833 30.85C14.85 32.7666 15.5833 33.5833 16.8667 34.8833C17.1833 35.2166 17.1833 35.7333 16.8667 36.0666C16.6833 36.2333 16.4667 36.3167 16.25 36.3167ZM28.2 33.2333C26.2167 33.2333 24.4667 32.7333 23.0333 31.75C20.55 30.0666 19.0667 27.3333 19.0667 24.4333C19.0667 23.9666 19.4333 23.6 19.9 23.6C20.3667 23.6 20.7333 23.9666 20.7333 24.4333C20.7333 26.7833 21.9333 29 23.9667 30.3666C25.15 31.1666 26.5333 31.55 28.2 31.55C28.6 31.55 29.2667 31.5 29.9333 31.3833C30.3833 31.3 30.8167 31.6 30.9 32.0666C30.9833 32.5166 30.6833 32.95 30.2167 33.0333C29.2667 33.2166 28.4333 33.2333 28.2 33.2333ZM24.85 36.6666C24.7833 36.6666 24.7 36.65 24.6333 36.6333C21.9833 35.9 20.25 34.9166 18.4333 33.1333C16.1 30.8166 14.8167 27.7333 14.8167 24.4333C14.8167 21.7333 17.1167 19.5333 19.95 19.5333C22.7833 19.5333 25.0833 21.7333 25.0833 24.4333C25.0833 26.2166 26.6333 27.6666 28.55 27.6666C30.4667 27.6666 32.0167 26.2166 32.0167 24.4333C32.0167 18.15 26.6 13.05 19.9333 13.05C15.2 13.05 10.8667 15.6833 8.91667 19.7666C8.26667 21.1166 7.93333 22.7 7.93333 24.4333C7.93333 25.7333 8.05 27.7833 9.05 30.45C9.21667 30.8833 9 31.3666 8.56667 31.5166C8.13333 31.6833 7.65 31.45 7.5 31.0333C6.68333 28.85 6.28333 26.6833 6.28333 24.4333C6.28333 22.4333 6.66667 20.6166 7.41667 19.0333C9.63333 14.3833 14.55 11.3666 19.9333 11.3666C27.5167 11.3666 33.6833 17.2166 33.6833 24.4166C33.6833 27.1166 31.3833 29.3166 28.55 29.3166C25.7167 29.3166 23.4167 27.1166 23.4167 24.4166C23.4167 22.6333 21.8667 21.1833 19.95 21.1833C18.0333 21.1833 16.4833 22.6333 16.4833 24.4166C16.4833 27.2666 17.5833 29.9333 19.6 31.9333C21.1833 33.5 22.7 34.3666 25.05 35.0166C25.5 35.1333 25.75 35.6 25.6333 36.0333C25.55 36.4166 25.2 36.6666 24.85 36.6666Z" fill="#DA3731"/>
</svg>
