<svg width="45" height="44" viewBox="0 0 45 44" fill="none" xmlns="http://www.w3.org/2000/svg">
<path fill-rule="evenodd" clip-rule="evenodd" d="M37.9114 27.8781L28.8705 32.4711L28.2356 31.2951L34.6971 28.018L34.781 27.9785C34.9303 27.9016 35.0626 27.7964 35.1701 27.6688C35.2777 27.5413 35.3584 27.394 35.4076 27.2356C35.4568 27.0772 35.4736 26.9107 35.4568 26.7459C35.4401 26.5811 35.3902 26.4212 35.3101 26.2754L35.0036 25.7089H35.0255L33.5405 23.0126L27.7723 12.3315L29.1332 11.6359L37.9114 27.8781ZM40.531 30.9832H44.4495C44.499 30.9831 44.548 30.9929 44.5935 31.0121C44.639 31.0312 44.68 31.0592 44.7142 31.0944C44.7483 31.1297 44.7748 31.1713 44.792 31.2169C44.8092 31.2625 44.8168 31.3111 44.8144 31.3596V40.7034C44.8136 40.8003 44.7756 40.8934 44.7079 40.9639C44.6403 41.0344 44.5479 41.0771 44.4495 41.0835H40.531C40.4288 41.0825 40.3309 41.0422 40.2586 40.9711C40.1863 40.9001 40.1452 40.8039 40.1443 40.7034V31.3596C40.1453 31.2595 40.1864 31.1637 40.2589 31.0932C40.3313 31.0227 40.4291 30.9832 40.531 30.9832ZM38.8892 40.2588V31.8222H35.0255C33.3873 32.1126 31.7418 32.9839 30.111 33.9986H27.1119C25.751 34.0774 25.0396 35.4328 26.3603 36.322C27.4147 37.0785 28.8012 37.0391 30.2241 36.91C31.2055 36.8634 31.2493 38.1577 30.2241 38.1613C29.8592 38.19 29.4944 38.1075 29.1295 38.1075C27.3527 38.1075 25.8933 37.7705 24.9994 36.3937L24.547 35.361L20.0995 33.1882C17.8666 32.4711 16.2795 34.7623 17.9104 36.3578C21.0233 38.5865 24.3522 40.5081 27.8489 42.0946C30.3116 43.5682 32.778 43.5288 35.2371 42.0946L38.8856 40.2481L38.8892 40.2588ZM5.28666 4.22472C5.276 4.07531 5.31576 3.92661 5.39976 3.80163C5.63691 3.4897 6.20243 3.57933 6.56728 3.57933C6.9439 3.59008 7.32062 3.56124 7.69101 3.49328C8.23707 3.35308 8.77331 3.17821 9.29634 2.9698C10.6572 2.48935 11.8795 2.13438 13.1783 1.67186C16.0971 0.642823 15.2215 0.420524 18.2169 1.67186C19.5101 2.2094 20.7666 2.82859 21.9785 3.52555C22.1515 3.61781 22.3121 3.73104 22.4564 3.86259C22.5991 4.00358 22.7218 4.16276 22.8213 4.33587C23.9669 5.97444 24.9483 7.63451 25.8897 9.29459C26.2071 9.87902 26.3384 10.4312 26.1232 10.779C25.2366 12.2132 23.6422 10.173 21.9274 8.82131C21.1977 8.25122 20.2236 7.74566 19.3735 7.1684C18.2789 6.7238 17.7827 6.30071 16.6189 6.06049C14.8347 5.9099 14.6888 8.4269 17.0348 8.52013C18.6073 8.58108 21.8909 10.0009 22.8249 11.306C23.686 12.5251 23.2117 13.7227 21.4604 13.6796L20.001 13.4107C17.6696 12.9805 17.7353 12.8944 15.309 13.339C14.0065 13.5757 12.642 13.8231 11.2957 13.5757C10.4785 13.4287 10.0479 13.106 9.31823 12.5574C8.96213 12.2513 8.57309 11.9844 8.15802 11.7614C7.82448 11.5675 7.46623 11.418 7.09266 11.3168C6.53444 11.1841 5.74637 11.3706 5.42165 10.8973C5.33147 10.7568 5.28458 10.5937 5.28666 10.4276V4.22472ZM0.364849 2.66862H4.01334C4.1101 2.66862 4.2029 2.7064 4.27132 2.77364C4.33974 2.84088 4.37818 2.93208 4.37818 3.02717V11.7327C4.37818 11.8278 4.33974 11.919 4.27132 11.9863C4.2029 12.0535 4.1101 12.0913 4.01334 12.0913H0.364849C0.268085 12.0913 0.175284 12.0535 0.106862 11.9863C0.0384393 11.919 0 11.8278 0 11.7327V3.02358C0 2.92849 0.0384393 2.83729 0.106862 2.77005C0.175284 2.70281 0.268085 2.66504 0.364849 2.66504V2.66862ZM25.1746 19.0148C25.6648 19.0141 26.1443 19.1564 26.5523 19.4236C26.9602 19.6909 27.2783 20.0711 27.4663 20.5161C27.6542 20.9611 27.7036 21.4509 27.6081 21.9234C27.5126 22.396 27.2766 22.8302 26.9299 23.1709C26.5833 23.5115 26.1415 23.7435 25.6606 23.8373C25.1797 23.9311 24.6813 23.8826 24.2285 23.6979C23.7757 23.5132 23.3888 23.2006 23.1169 22.7997C22.8449 22.3988 22.7002 21.9276 22.7009 21.4458C22.7018 20.8013 22.9628 20.1836 23.4265 19.7279C23.8902 19.2722 24.5188 19.0158 25.1746 19.0148ZM26.3129 12.2024L34.2958 26.9925L24.6638 31.8903L16.0132 15.9026L19.0524 14.3573L19.1582 14.3788L21.2561 14.7625C21.3155 14.7679 21.3754 14.7679 21.4349 14.7625C21.8186 14.7771 22.2023 14.7348 22.5732 14.637L19.8149 16.0568C20.0108 16.4282 20.0485 16.8608 19.9199 17.2595C19.7913 17.6582 19.5068 17.9904 19.129 18.183L24.5689 28.0682C24.9468 27.8757 25.387 27.8386 25.7927 27.965C26.1984 28.0914 26.5364 28.371 26.7325 28.7422L30.5415 26.8025C30.4446 26.6189 30.3855 26.4183 30.3675 26.2122C30.3496 26.0062 30.3731 25.7986 30.4368 25.6015C30.5005 25.4044 30.6031 25.2215 30.7388 25.0634C30.8744 24.9052 31.0405 24.7749 31.2274 24.6799L25.7912 14.8019C25.6038 14.897 25.3993 14.955 25.1891 14.9724C24.979 14.9899 24.7674 14.9665 24.5665 14.9035C24.3656 14.8406 24.1793 14.7394 24.0182 14.6057C23.8571 14.472 23.7243 14.3084 23.6276 14.1242L23.5765 14.1529C23.7934 13.9746 23.973 13.7566 24.1055 13.5111C24.2684 13.2015 24.3571 12.8593 24.3646 12.5108C24.3733 12.3914 24.3733 12.2716 24.3646 12.1522C25.0943 12.5108 25.7328 12.5753 26.3165 12.206L26.3129 12.2024Z" fill="#DA3731"/>
</svg>
