<svg width="30" height="30" viewBox="0 0 30 30" fill="none" xmlns="http://www.w3.org/2000/svg">
<path d="M16.25 3.75C10.0375 3.75 5 8.7875 5 15H1.25L6.25 20L11.25 15H7.5C7.5 10.175 11.425 6.25 16.25 6.25C21.075 6.25 25 10.175 25 15C25 19.825 21.075 23.75 16.25 23.75C13.875 23.75 11.725 22.8 10.15 21.2625L8.375 23.025C10.4 25.0125 13.1875 26.25 16.25 26.25C22.4625 26.25 27.5 21.2125 27.5 15C27.5 8.7875 22.4625 3.75 16.25 3.75ZM18.75 13.75V12.5C18.75 11.125 17.625 10 16.25 10C14.875 10 13.75 11.125 13.75 12.5V13.75C13.0625 13.75 12.5 14.3125 12.5 15V18.75C12.5 19.4375 13.0625 20 13.75 20H18.75C19.4375 20 20 19.4375 20 18.75V15C20 14.3125 19.4375 13.75 18.75 13.75ZM17.5 13.75H15V12.5C15 11.8125 15.5625 11.25 16.25 11.25C16.9375 11.25 17.5 11.8125 17.5 12.5V13.75Z" fill="#DA3731"/>
</svg>
