<svg width="23" height="17" viewBox="0 0 23 17" fill="none" xmlns="http://www.w3.org/2000/svg">
<mask id="mask0_57_499" style="mask-type:alpha" maskUnits="userSpaceOnUse" x="2" y="2" width="21" height="15">
<path d="M2 17V13H19V2H23V17H2Z" fill="#C4C4C4"/>
</mask>
<g mask="url(#mask0_57_499)">
<path d="M18 10V2C18 0.9 17.1 0 16 0H2C0.9 0 0 0.9 0 2V10C0 11.1 0.9 12 2 12H16C17.1 12 18 11.1 18 10ZM9 9C7.34 9 6 7.66 6 6C6 4.34 7.34 3 9 3C10.66 3 12 4.34 12 6C12 7.66 10.66 9 9 9ZM22 3V14C22 15.1 21.1 16 20 16H3V14H20V3H22Z" fill="#DAD8D8"/>
</g>
<mask id="mask1_57_499" style="mask-type:alpha" maskUnits="userSpaceOnUse" x="0" y="0" width="18" height="12">
<rect width="18" height="12" fill="#C4C4C4"/>
</mask>
<g mask="url(#mask1_57_499)">
<path d="M18 10V2C18 0.9 17.1 0 16 0H2C0.9 0 0 0.9 0 2V10C0 11.1 0.9 12 2 12H16C17.1 12 18 11.1 18 10ZM9 9C7.34 9 6 7.66 6 6C6 4.34 7.34 3 9 3C10.66 3 12 4.34 12 6C12 7.66 10.66 9 9 9ZM22 3V14C22 15.1 21.1 16 20 16H3V14H20V3H22Z" fill="#30384C"/>
</g>
<circle cx="9" cy="6" r="2" fill="#30384C"/>
</svg>
