<?xml version="1.0" standalone="no"?>
<!DOCTYPE svg PUBLIC "-//W3C//DTD SVG 20010904//EN"
 "http://www.w3.org/TR/2001/REC-SVG-20010904/DTD/svg10.dtd">
<svg version="1.0" xmlns="http://www.w3.org/2000/svg"
 width="512.000000pt" height="512.000000pt" viewBox="0 0 512.000000 512.000000"
 preserveAspectRatio="xMidYMid meet">
<metadata>
Created by potrace 1.14, written by Peter Selinger 2001-2017
</metadata>
<g transform="translate(0.000000,512.000000) scale(0.100000,-0.100000)"
fill="#000000" stroke="none">
<path d="M425 5104 c-151 -37 -298 -153 -364 -289 -18 -38 -34 -74 -35 -80 -2
-5 -8 -35 -14 -65 -9 -42 -12 -554 -10 -2140 l3 -2085 22 -62 c25 -70 79 -161
127 -212 69 -73 193 -140 296 -160 37 -7 736 -10 2120 -10 2279 -1 2112 -5
2250 62 88 43 194 150 237 238 67 137 63 -21 60 2289 l-2 2095 -27 68 c-67
166 -200 294 -355 341 -12 4 -32 10 -45 14 -13 4 -963 8 -2113 9 -1796 1
-2098 -1 -2150 -13z m2920 -756 c290 -98 480 -357 477 -648 -1 -71 -11 -151
-26 -195 -21 -66 -54 -135 -91 -190 -34 -51 -148 -167 -175 -177 -12 -5 -10
-10 10 -24 172 -126 279 -331 282 -541 1 -98 -7 -150 -37 -236 -63 -184 -212
-338 -395 -410 -170 -67 -376 -61 -543 16 -58 26 -149 85 -155 99 -16 38 -21
-43 -24 -369 l-3 -378 -27 -76 c-66 -186 -200 -336 -371 -414 -159 -73 -359
-80 -527 -20 -120 43 -265 159 -334 269 -134 210 -145 467 -28 691 26 50 63
96 129 162 88 88 91 93 71 104 -71 38 -183 177 -227 282 -107 258 -54 541 137
736 37 37 78 76 92 85 24 16 24 17 5 28 -11 6 -54 45 -96 88 -58 59 -86 98
-117 161 -22 46 -44 98 -48 114 -4 17 -8 32 -9 35 -10 37 -18 110 -17 170 2
279 182 530 450 627 37 14 87 27 112 30 25 3 47 7 49 9 2 2 308 3 680 1 l676
-2 80 -27z"/>
<path d="M1908 4148 c-219 -31 -386 -225 -386 -447 0 -176 97 -335 251 -411
87 -43 148 -50 430 -50 l247 0 0 455 c0 250 -3 456 -7 456 -32 5 -498 3 -535
-3z"/>
<path d="M2674 4151 c-2 -2 -4 -209 -4 -458 l0 -454 271 1 c209 2 283 5 323
17 194 57 328 228 335 428 7 205 -129 390 -331 452 -43 13 -106 16 -321 17
-147 1 -270 0 -273 -3z"/>
<path d="M1910 3012 c-88 -12 -195 -68 -263 -138 -167 -171 -168 -450 -3 -624
58 -61 99 -88 181 -120 57 -22 73 -24 343 -26 l282 -2 0 458 0 457 -257 -1
c-142 0 -269 -2 -283 -4z"/>
<path d="M3015 3000 c-92 -27 -127 -45 -184 -96 -97 -87 -147 -189 -156 -317
-14 -200 107 -383 301 -457 77 -29 233 -32 309 -5 367 129 426 612 100 820
-105 67 -253 89 -370 55z"/>
<path d="M1854 1861 c-188 -53 -315 -209 -331 -407 -29 -367 379 -612 700
-420 72 43 133 109 172 186 46 91 52 137 54 408 l2 252 -268 -1 c-220 -1 -279
-4 -329 -18z"/>
</g>
</svg>
