<svg version="1.1" id="Uploaded to svgrepo.com" xmlns="http://www.w3.org/2000/svg" xmlns:xlink="http://www.w3.org/1999/xlink" x="0px" y="0px"
	 width="32px" height="32px" viewBox="0 0 32 32" style="enable-background:new 0 0 32 32;" xml:space="preserve">
<style type="text/css">
	.sharpcorners_een{fill:#111918;}
	.st0{fill:#0B1719;}
</style>
<g>
	<g>
		<path class="sharpcorners_een" d="M8.975,16c-0.121-3.285-1.42-6.263-3.478-8.543C3.436,9.736,2.146,12.715,2.025,16H8.975z"/>
		<path class="sharpcorners_een" d="M15,16V3.025c-3.416,0.125-6.504,1.512-8.814,3.718C8.432,9.207,9.852,12.438,9.975,16H15z"/>
		<path class="sharpcorners_een" d="M28.975,16c-0.121-3.285-1.41-6.264-3.471-8.543c-2.058,2.28-3.357,5.258-3.478,8.543H28.975z"
			/>
		<path class="sharpcorners_een" d="M16,16h5.025c0.122-3.562,1.542-6.793,3.788-9.257C22.504,4.537,19.416,3.151,16,3.025V16z"/>
		<path class="sharpcorners_een" d="M21.025,17H16v12.975c3.416-0.125,6.504-1.512,8.814-3.718
			C22.568,23.793,21.148,20.562,21.025,17z"/>
		<path class="sharpcorners_een" d="M22.025,17c0.121,3.285,1.42,6.263,3.478,8.543c2.061-2.279,3.351-5.258,3.471-8.543H22.025z"/>
		<path class="sharpcorners_een" d="M15,17H9.975c-0.122,3.562-1.542,6.793-3.788,9.257c2.31,2.206,5.398,3.592,8.814,3.718V17z"/>
		<path class="sharpcorners_een" d="M2.025,17c0.121,3.285,1.41,6.264,3.472,8.543c2.058-2.28,3.357-5.258,3.478-8.543H2.025z"/>
	</g>
	<g>
		<path class="sharpcorners_een" d="M8.975,16c-0.121-3.285-1.42-6.263-3.478-8.543C3.436,9.736,2.146,12.715,2.025,16H8.975z"/>
		<path class="sharpcorners_een" d="M15,16V3.025c-3.416,0.125-6.504,1.512-8.814,3.718C8.432,9.207,9.852,12.438,9.975,16H15z"/>
		<path class="sharpcorners_een" d="M28.975,16c-0.121-3.285-1.41-6.264-3.471-8.543c-2.058,2.28-3.357,5.258-3.478,8.543H28.975z"
			/>
		<path class="sharpcorners_een" d="M16,16h5.025c0.122-3.562,1.542-6.793,3.788-9.257C22.504,4.537,19.416,3.151,16,3.025V16z"/>
		<path class="sharpcorners_een" d="M21.025,17H16v12.975c3.416-0.125,6.504-1.512,8.814-3.718
			C22.568,23.793,21.148,20.562,21.025,17z"/>
		<path class="sharpcorners_een" d="M22.025,17c0.121,3.285,1.42,6.263,3.478,8.543c2.061-2.279,3.351-5.258,3.471-8.543H22.025z"/>
		<path class="sharpcorners_een" d="M15,17H9.975c-0.122,3.562-1.542,6.793-3.788,9.257c2.31,2.206,5.398,3.592,8.814,3.718V17z"/>
		<path class="sharpcorners_een" d="M2.025,17c0.121,3.285,1.41,6.264,3.472,8.543c2.058-2.28,3.357-5.258,3.478-8.543H2.025z"/>
	</g>
</g>
</svg>