<svg version="1.1" id="Uploaded to svgrepo.com" xmlns="http://www.w3.org/2000/svg" xmlns:xlink="http://www.w3.org/1999/xlink" x="0px" y="0px"
	 width="32px" height="32px" viewBox="0 0 32 32" style="enable-background:new 0 0 32 32;" xml:space="preserve">
<style type="text/css">
	.stone_een{fill:#0B1719;}
</style>
<path class="stone_een" d="M27.638,19.158c-0.511-1.022-1.54-1.658-2.683-1.658h-0.98c-0.048-0.782-0.208-1.532-0.465-2.237
	l1.996-0.499c0.851-0.214,1.564-0.786,1.956-1.569l2.486-4.972c0.124-0.247,0.023-0.547-0.224-0.671s-0.547-0.022-0.671,0.224
	l-2.486,4.972c-0.261,0.522-0.737,0.903-1.304,1.046l-2.158,0.539c-0.249-0.481-0.542-0.934-0.879-1.352l2.061-2.061
	c0.444-0.444,0.734-1.007,0.838-1.628l0.868-5.21c0.045-0.272-0.139-0.53-0.411-0.575c-0.272-0.048-0.53,0.138-0.575,0.411
	l-0.868,5.21c-0.069,0.413-0.262,0.789-0.559,1.085l-2.032,2.032c-0.922-0.889-2.056-1.557-3.32-1.924C19.297,9.603,20,8.384,20,7
	c0-2.209-1.791-4-4-4s-4,1.791-4,4c0,1.384,0.703,2.603,1.771,3.321c-1.264,0.366-2.398,1.034-3.32,1.924L8.42,10.213
	C8.124,9.917,7.931,9.541,7.861,9.128l-0.868-5.21C6.948,3.645,6.69,3.46,6.418,3.507C6.146,3.552,5.961,3.81,6.007,4.082
	l0.868,5.21c0.104,0.621,0.394,1.184,0.838,1.628l2.061,2.061c-0.337,0.418-0.631,0.871-0.879,1.352l-2.158-0.539
	c-0.567-0.143-1.043-0.523-1.304-1.046L2.947,7.776C2.823,7.53,2.524,7.429,2.276,7.553C2.029,7.677,1.929,7.977,2.053,8.224
	l2.486,4.972c0.392,0.783,1.104,1.355,1.956,1.569l1.996,0.499c-0.257,0.705-0.417,1.455-0.465,2.237h-0.98
	c-1.144,0-2.172,0.636-2.683,1.658l-2.309,4.618c-0.124,0.247-0.023,0.547,0.224,0.671C2.348,24.483,2.424,24.5,2.5,24.5
	c0.184,0,0.36-0.102,0.448-0.276l2.309-4.618C5.597,18.924,6.283,18.5,7.045,18.5h0.98c0.055,0.882,0.247,1.725,0.564,2.506
	l-1.653,1.102c-0.552,0.368-0.972,0.917-1.182,1.547l-1.729,5.187c-0.087,0.262,0.054,0.545,0.316,0.633
	C4.395,29.492,4.448,29.5,4.5,29.5c0.209,0,0.404-0.133,0.474-0.342l1.729-5.187c0.141-0.42,0.42-0.786,0.789-1.031l1.537-1.025
	C10.399,24.352,13.005,26,16,26s5.601-1.648,6.972-4.084l1.537,1.025c0.368,0.245,0.648,0.611,0.789,1.031l1.729,5.187
	c0.07,0.209,0.265,0.342,0.474,0.342c0.052,0,0.105-0.008,0.158-0.025c0.262-0.088,0.403-0.371,0.316-0.633l-1.729-5.187
	c-0.21-0.63-0.63-1.179-1.182-1.547l-1.653-1.102c0.317-0.781,0.509-1.625,0.564-2.506h0.98c0.762,0,1.448,0.424,1.789,1.105
	l2.309,4.618c0.088,0.175,0.264,0.276,0.448,0.276c0.075,0,0.151-0.017,0.223-0.053c0.247-0.124,0.347-0.424,0.224-0.671
	L27.638,19.158z"/>
</svg>