<?xml version="1.0" encoding="iso-8859-1"?>

<!DOCTYPE svg PUBLIC "-//W3C//DTD SVG 1.1//EN" "http://www.w3.org/Graphics/SVG/1.1/DTD/svg11.dtd">
<svg version="1.1" xmlns="http://www.w3.org/2000/svg" xmlns:xlink="http://www.w3.org/1999/xlink" x="0px" y="0px"
	 width="29.181px" height="30px" viewBox="0 0 29.181 30" style="enable-background:new 0 0 29.181 30;" xml:space="preserve">
<g id="weathercock">
	<path d="M27.67,13.523c-0.05-1.23-0.516-2.452-1.409-3.435c-0.889-0.979-2.053-1.56-3.268-1.731
		c1.901-0.888,4.129-1.021,6.188-0.253c-0.672-1.68-1.915-3.144-3.631-4.069c-3.894-2.093-8.745-0.636-10.838,3.256
		C13.873,8.85,13.571,10.477,13.753,12c-0.403-0.022-0.808-0.075-1.212-0.195c-2.476-0.736-4.282-3.105-4.062-5.583
		C8.463,6.23,8.448,6.239,8.433,6.248c0.024-0.155,0.047-0.31,0.047-0.47c0-0.175-0.022-0.344-0.051-0.511
		C8.972,5.099,9.368,4.598,9.368,4c0-0.615-0.419-1.128-0.985-1.282c0.062-0.153,0.097-0.319,0.097-0.496
		c0-0.735-0.597-1.333-1.333-1.333c-0.221,0-0.425,0.059-0.607,0.153C6.259,0.43,5.644,0,4.925,0C3.942,0,3.146,0.796,3.146,1.778
		c0,0.538,0.246,1.016,0.625,1.343C3.25,3.435,2.832,3.893,2.568,4.445H0.52c-0.102,0-0.19,0.07-0.213,0.169
		C0.283,4.713,0.331,4.815,0.421,4.86l1.836,0.918L0.121,6.846c-0.082,0.041-0.13,0.129-0.12,0.22
		c0.01,0.091,0.076,0.167,0.165,0.188l2.776,0.694C2.319,8.556,1.748,9.23,1.57,9.518c-0.39,0.624-0.198,1.447,0.427,1.836
		c0.154,0.097,0.32,0.156,0.489,0.184c-0.23,0.618,0.022,1.325,0.621,1.643c0.301,0.157,0.632,0.185,0.938,0.11
		c-0.099,3.534,2.162,6.833,5.713,7.888c0.241,0.072,0.484,0.129,0.727,0.177L11.146,24h0.389v1.314H6.202l-1.277-1.278H2.258
		l1.777,1.778l-1.777,1.777h2.667l1.276-1.277h5.334V30h1v-3.686h5.369L16.925,27.7l4-1.886l-4-1.887l0.979,1.387h-5.369V24h0.39
		l0.661-2.646c2.614-0.521,4.885-2.335,5.897-4.946c0.359-0.302,0.774-0.548,1.249-0.694c1.754-0.54,3.601,0.318,4.354,1.936
		c0.317-0.756,0.381-1.624,0.122-2.47c-0.436-1.419-1.664-2.371-3.049-2.531C23.986,11.917,26.115,12.221,27.67,13.523z"/>
</g>
<g id="Layer_1">
</g>
</svg>
